<?xml version="1.0" encoding="utf-8"?>
<!-- Generator: Adobe Illustrator 19.0.1, SVG Export Plug-In . SVG Version: 6.00 Build 0)  -->
<svg version="1.1" id="Слой_1" xmlns="http://www.w3.org/2000/svg" xmlns:xlink="http://www.w3.org/1999/xlink" x="0px" y="0px"
	 viewBox="0 0 70 65" style="enable-background:new 0 0 70 65;" xml:space="preserve">
<style type="text/css">
	.st0{fill:none;stroke:#C9C9C9;stroke-width:1.5;stroke-miterlimit:10;}
</style>
<g>
	<path class="st0" d="M51.8,58.1H24.3c-2.6,0-4.7-2.1-4.7-4.7V26.9c0-2.6,2.1-4.7,4.7-4.7h27.5c2.6,0,4.7,2.1,4.7,4.7v26.5
		C56.5,56,54.4,58.1,51.8,58.1z"/>
	<path class="st0" d="M5.6,52.4L5.6,52.4c-2.5,0-4.6-2.1-4.6-4.6V33.2c0-2.5,2.1-4.6,4.6-4.6h0c2.5,0,4.6,2.1,4.6,4.6v14.7
		C10.2,50.4,8.1,52.4,5.6,52.4z"/>
	<path class="st0" d="M64.3,52.4L64.3,52.4c-2.5,0-4.6-2.1-4.6-4.6V33.2c0-2.5,2.1-4.6,4.6-4.6h0c2.5,0,4.6,2.1,4.6,4.6v14.7
		C68.9,50.4,66.9,52.4,64.3,52.4z"/>
	<path class="st0" d="M50,12.5L50,12.5c0,2.5-2.1,4.6-4.6,4.6H30.7c-2.5,0-4.6-2.1-4.6-4.6v0c0-2.5,2.1-4.6,4.6-4.6h14.7
		C47.9,7.9,50,9.9,50,12.5z"/>
	<path class="st0" d="M19.7,52.1L19.7,52.1c-3.4,0.9-6.3-0.9-6.3-3.3V32.3C13.2,30,16,28.1,19.7,29h0C19.7,29,19.7,47.3,19.7,52.1z"
		/>
	<rect x="33.9" y="17.1" class="st0" width="9.2" height="4.3"/>
	<line class="st0" x1="13.3" y1="35.9" x2="10.2" y2="35.9"/>
	<line class="st0" x1="13.3" y1="44.6" x2="10.2" y2="44.6"/>
	<line class="st0" x1="56.5" y1="35.9" x2="59.8" y2="35.9"/>
	<line class="st0" x1="56.5" y1="44.6" x2="59.8" y2="44.6"/>
	<polygon class="st0" points="36.7,30 32.5,40.2 35.4,40.2 32.5,50.1 43.5,37.5 37.3,37.5 42.8,30 	"/>
</g>
</svg>
