<?xml version="1.0" encoding="utf-8"?>
<!-- Generator: Adobe Illustrator 19.0.1, SVG Export Plug-In . SVG Version: 6.00 Build 0)  -->
<svg version="1.1" id="Слой_1" xmlns="http://www.w3.org/2000/svg" xmlns:xlink="http://www.w3.org/1999/xlink" x="0px" y="0px"
	 viewBox="0 0 100 95" style="enable-background:new 0 0 100 95;" xml:space="preserve">
<style type="text/css">
	.st0{fill:none;stroke:#DE854E;stroke-width:2;stroke-miterlimit:10;}
</style>
<g>
	<path class="st0" d="M74.5,79.9H33.9c-2.6,0-4.7-2.1-4.7-4.7V36c0-2.6,2.1-4.7,4.7-4.7h40.6c2.6,0,4.7,2.1,4.7,4.7v39.2
		C79.2,77.8,77.1,79.9,74.5,79.9z"/>
	<path class="st0" d="M11.8,72.2H8.5C6,72.2,4,70.2,4,67.6V44.5C4,42,6,39.9,8.5,39.9h3.3c2.5,0,4.6,2.1,4.6,4.6v23.1
		C16.4,70.2,14.3,72.2,11.8,72.2z"/>
	<path class="st0" d="M91.4,72.2h-3.3c-2.5,0-4.6-2.1-4.6-4.6V44.5c0-2.5,2.1-4.6,4.6-4.6h3.3c2.5,0,4.6,2.1,4.6,4.6v23.1
		C96,70.2,93.9,72.2,91.4,72.2z"/>
	<path class="st0" d="M70.4,16.4v3.3c0,2.5-2.1,4.6-4.6,4.6H42.6c-2.5,0-4.6-2.1-4.6-4.6v-3.3c0-2.5,2.1-4.6,4.6-4.6h23.1
		C68.3,11.8,70.4,13.9,70.4,16.4z"/>
	<path class="st0" d="M29.3,71.8L29.3,71.8c-4.7,1.3-8.5-1.2-8.6-4.5V44.9c-0.1-3.1,3.6-5.7,8.6-4.5h0
		C29.3,40.5,29.3,65.3,29.3,71.8z"/>
	<rect x="48.5" y="24.3" class="st0" width="12.5" height="5.8"/>
	<line class="st0" x1="20.7" y1="49.8" x2="16.4" y2="49.8"/>
	<line class="st0" x1="20.7" y1="61.6" x2="16.4" y2="61.6"/>
	<line class="st0" x1="79.2" y1="49.8" x2="83.6" y2="49.8"/>
	<line class="st0" x1="79.2" y1="61.6" x2="83.6" y2="61.6"/>
	<polygon class="st0" points="52.4,41.7 46.6,55.6 50.6,55.6 46.6,69.1 61.5,52 53.1,52 60.6,41.7 	"/>
</g>
</svg>
