<?xml version="1.0" encoding="utf-8"?>
<!-- Generator: Adobe Illustrator 19.0.1, SVG Export Plug-In . SVG Version: 6.00 Build 0)  -->
<svg version="1.1" id="Слой_1" xmlns="http://www.w3.org/2000/svg" xmlns:xlink="http://www.w3.org/1999/xlink" x="0px" y="0px"
	 viewBox="0 0 70 65" style="enable-background:new 0 0 70 65;" xml:space="preserve">
<style type="text/css">
	.st0{fill:none;stroke:#C9C9C9;stroke-width:1.5;stroke-miterlimit:10;}
</style>
<g>
	<path class="st0" d="M34.6,20.4c0,0-5.3-5-9.1-9.1S22,4.2,24.1,2.1l0,0c2.2-2.2,6.3-1.5,9.3,1.4l9.1,9.1L34.6,20.4z"/>
	<path class="st0" d="M54,24.2c0,0,6.3,5.9,10.1,10c3.8,4.1,3.6,7.1,1.4,9.3l0,0c-2.2,2.2-6.3,1.5-9.3-1.4l-10.1-10L54,24.2z"/>
	<path class="st0" d="M35,24c0,0,4.4-4.8,8.1-8.1s6.5-3,8.7-0.8l0,0c2.2,2.2,1.8,6.1-0.8,8.7l-8.1,8.1L35,24z"/>
	<path class="st0" d="M16.9,27.3l22.6,22.6c0,0,7.8-6.6,3.3-18C35,24,35,24,35,24S24.8,19.9,16.9,27.3z"/>
	<path class="st0" d="M24.9,35.3c0,0-2,3.3,0,5.3s5.7,0.4,5.7,0.4L24.9,35.3z"/>
	<path class="st0" d="M13.6,37.2c0,0,0.1,14.1,16,15.9"/>
	<path class="st0" d="M3.2,37.2c0,0,1.3,24.7,26.4,26.3"/>
</g>
</svg>
