<?xml version="1.0" encoding="utf-8"?>
<!-- Generator: Adobe Illustrator 19.0.1, SVG Export Plug-In . SVG Version: 6.00 Build 0)  -->
<svg version="1.1" id="Слой_1" xmlns="http://www.w3.org/2000/svg" xmlns:xlink="http://www.w3.org/1999/xlink" x="0px" y="0px"
	 viewBox="0 0 100 95" style="enable-background:new 0 0 100 95;" xml:space="preserve">
<style type="text/css">
	.st0{fill:none;stroke:#DE854E;stroke-width:2;stroke-miterlimit:10;}
</style>
<g>
	<path class="st0" d="M50.3,31.6c0,0-7.4-7-12.7-12.7s-5-9.9-1.9-13l0,0c3-3,8.8-2.2,13,2l12.7,12.7L50.3,31.6z"/>
	<path class="st0" d="M77.4,36.9c0,0,8.8,8.3,14.1,14c5.3,5.8,5,9.9,1.9,13l0,0c-3,3-8.8,2.2-13-2l-14.1-14L77.4,36.9z"/>
	<path class="st0" d="M50.8,36.6c0,0,6.2-6.7,11.4-11.3s9.1-4.2,12.2-1.1l0,0c3,3,2.5,8.5-1.2,12.1L61.7,47.7L50.8,36.6z"/>
	<path class="st0" d="M25.5,41.3l31.6,31.6c0,0,10.9-9.2,4.7-25.2c-11-11-11-11-11-11S36.5,31,25.5,41.3z"/>
	<path class="st0" d="M36.6,52.4c0,0-2.8,4.6,0,7.4c2.8,2.8,8,0.6,8,0.6L36.6,52.4z"/>
	<path class="st0" d="M20.9,55c0,0,0.1,19.7,22.3,22.2"/>
	<path class="st0" d="M6.3,55c0,0,1.9,34.5,37,36.7"/>
</g>
</svg>
