<?xml version="1.0" encoding="utf-8"?>
<!-- Generator: Adobe Illustrator 19.0.1, SVG Export Plug-In . SVG Version: 6.00 Build 0)  -->
<svg version="1.1" id="Слой_1" xmlns="http://www.w3.org/2000/svg" xmlns:xlink="http://www.w3.org/1999/xlink" x="0px" y="0px"
	 viewBox="0 0 50 65" style="enable-background:new 0 0 50 65;" xml:space="preserve">
<style type="text/css">
	.st0{fill:none;stroke:#C8C7C7;stroke-width:1.5;stroke-miterlimit:10;}
	.st1{fill:none;}
</style>
<g>
	<ellipse class="st0" cx="39.9" cy="48.3" rx="3.9" ry="4"/>
	<path class="st0" d="M39.8,63c0,0,6.3-10,7.1-11.2c0.8-1.1,3.1-12-7.1-12S32,50,32.9,51.5C33.7,52.9,39.8,63,39.8,63z"/>
	<ellipse class="st0" cx="11" cy="9" rx="3.9" ry="4"/>
	<line class="st0" x1="11" y1="24.7" x2="16" y2="24.7"/>
	<path class="st0" d="M19.4,24.4c0.1,0,6.7,0,6.7,0"/>
	<line class="st0" x1="29.5" y1="24.3" x2="36" y2="24.3"/>
	<path class="st0" d="M39.9,24.9c0,0,4.3-0.5,5.2,2"/>
	<path class="st0" d="M45.8,31.7c0,0-0.7,2.4-3.7,3"/>
	<line class="st0" x1="36.9" y1="36.1" x2="32.2" y2="36.7"/>
	<path class="st0" d="M27.1,36.7"/>
	<line class="st0" x1="22.1" y1="38.1" x2="27.6" y2="37.2"/>
	<line class="st0" x1="12.4" y1="40" x2="17.4" y2="39"/>
	<path class="st0" d="M7.7,41.3c0,0-2.7,1-3.8,3.8"/>
	<path class="st1" d="M3.3,49"/>
	<path class="st0" d="M2.8,49.8c0,0-0.6,2.7,1.6,5.4"/>
	<path class="st0" d="M7.4,58.7c0,0,2.2,2.6,4.4,3"/>
	<line class="st0" x1="16.4" y1="62.3" x2="22.1" y2="63.1"/>
	<line class="st0" x1="26" y1="63.3" x2="32.4" y2="63.6"/>
	<line class="st0" x1="36" y1="63.8" x2="39.8" y2="63.8"/>
	<path class="st0" d="M11,24.1c0,0,6.3-10,7.1-11.2c0.8-1.1,3.1-12-7.1-12S3.2,11.1,4,12.5S11,24.1,11,24.1z"/>
</g>
</svg>
