<?xml version="1.0" encoding="utf-8"?>
<!-- Generator: Adobe Illustrator 19.0.1, SVG Export Plug-In . SVG Version: 6.00 Build 0)  -->
<svg version="1.1" id="Слой_1" xmlns="http://www.w3.org/2000/svg" xmlns:xlink="http://www.w3.org/1999/xlink" x="0px" y="0px"
	 viewBox="0 0 100 95" style="enable-background:new 0 0 100 95;" xml:space="preserve">
<style type="text/css">
	.st0{fill:none;stroke:#DE854E;stroke-width:2;stroke-miterlimit:10;}
</style>
<g>
	<circle class="st0" cx="71.8" cy="69.9" r="5.6"/>
	<path class="st0" d="M71.7,90.6c0,0,9.1-14.1,10.3-15.7c1.2-1.6,4.6-16.9-10.3-16.9S60.3,72.3,61.6,74.3
		C62.8,76.3,71.7,90.6,71.7,90.6z"/>
	<circle class="st0" cx="29.8" cy="14.4" r="5.6"/>
	<line class="st0" x1="29.9" y1="36.5" x2="37.1" y2="36.5"/>
	<path class="st0" d="M42,36.1c0.1,0,9.8,0,9.8,0"/>
	<line class="st0" x1="56.7" y1="35.9" x2="66.1" y2="35.9"/>
	<path class="st0" d="M71.8,36.7c0,0,6.2-0.7,7.5,2.8"/>
	<path class="st0" d="M80.4,46.3c0,0-1,3.4-5.4,4.2"/>
	<line class="st0" x1="67.4" y1="52.6" x2="60.6" y2="53.5"/>
	<path class="st0" d="M53.2,53.4"/>
	<line class="st0" x1="45.9" y1="55.5" x2="53.9" y2="54.2"/>
	<line class="st0" x1="31.9" y1="58.1" x2="39.1" y2="56.6"/>
	<path class="st0" d="M25,60c0,0-3.9,1.5-5.5,5.4"/>
	<path class="st0" d="M18.6,70.8"/>
	<path class="st0" d="M17.9,71.9c0,0-0.9,3.8,2.3,7.7"/>
	<path class="st0" d="M24.5,84.5c0,0,3.2,3.7,6.4,4.2"/>
	<line class="st0" x1="37.6" y1="89.6" x2="46" y2="90.7"/>
	<line class="st0" x1="51.6" y1="91" x2="60.9" y2="91.4"/>
	<line class="st0" x1="66.1" y1="91.8" x2="71.7" y2="91.8"/>
	<path class="st0" d="M29.8,35.6c0,0,9.1-14.1,10.3-15.7C41.3,18.3,44.6,3,29.8,3S18.4,17.3,19.7,19.3S29.8,35.6,29.8,35.6z"/>
</g>
</svg>
