<?xml version="1.0" encoding="utf-8"?>
<!-- Generator: Adobe Illustrator 19.0.1, SVG Export Plug-In . SVG Version: 6.00 Build 0)  -->
<svg version="1.1" id="Слой_1" xmlns="http://www.w3.org/2000/svg" xmlns:xlink="http://www.w3.org/1999/xlink" x="0px" y="0px"
	 viewBox="0 0 70 65" style="enable-background:new 0 0 70 65;" xml:space="preserve">
<style type="text/css">
	.st0{fill:none;stroke:#C9C9C9;stroke-width:1.5;stroke-miterlimit:10;}
</style>
<g>
	<path class="st0" d="M52.9,1.3H36.6c-4.8,0-8.6,4.5-8.6,10.1v42.2h33.5V11.4C61.5,5.9,57.6,1.3,52.9,1.3z"/>
	<rect x="32.3" y="13.3" class="st0" width="24.5" height="10"/>
	<rect x="21.9" y="53.6" class="st0" width="46.9" height="9.8"/>
	<path class="st0" d="M28,24.3c0,0-8.8-2.3-8.8,8.6s0,16.1,0,16.1s-4.1,5.6-8,0c0-7.5,0-28.8,0-28.8s3.1-2.8,1.7-5.1
		s-9.7-7.7-10-7.2s4.7,4,4.7,4s0.4,4.1,0.4,4.5c0,1.4,3.1,4.5,3.3,3.8"/>
</g>
</svg>
