<?xml version="1.0" encoding="utf-8"?>
<!-- Generator: Adobe Illustrator 19.0.1, SVG Export Plug-In . SVG Version: 6.00 Build 0)  -->
<svg version="1.1" id="Слой_1" xmlns="http://www.w3.org/2000/svg" xmlns:xlink="http://www.w3.org/1999/xlink" x="0px" y="0px"
	 viewBox="0 0 100 95" style="enable-background:new 0 0 100 95;" xml:space="preserve">
<style type="text/css">
	.st0{fill:none;stroke:#DE854E;stroke-width:2;stroke-miterlimit:10;}
</style>
<g>
	<path class="st0" d="M74.7,4.3h-23c-6.7,0-12.2,6.4-12.2,14.3v59.6h47.3V18.6C86.9,10.7,81.5,4.3,74.7,4.3z"/>
	<rect x="45.6" y="21.2" class="st0" width="34.6" height="14.2"/>
	<rect x="31" y="78.2" class="st0" width="66.2" height="13.8"/>
	<path class="st0" d="M39.6,36.8c0,0-12.4-3.3-12.4,12.1s0,22.8,0,22.8s-5.8,7.9-11.3,0c0-10.5,0-40.7,0-40.7s4.4-4,2.4-7.1
		S4.6,12.8,4.1,13.5s6.6,5.6,6.6,5.6s0.5,5.7,0.5,6.4c-0.1,2,4.4,6.4,4.7,5.3"/>
</g>
</svg>
